<svg xmlns="http://www.w3.org/2000/svg" width="200px" height="112.557px" viewBox="0 0 666.000000 375.000000" preserveAspectRatio="xMidYMid meet">
  <metadata>
    Created by potrace 1.16, written by Peter Selinger 2001-2019
  </metadata>
  <g transform="translate(0.000000,375.000000) scale(0.100000,-0.100000)" fill="#8A8A8A" stroke="none">
    <path d="M1195 2508 c-9 -32 -65 -346 -65 -370 0 -17 8 -31 19 -38 13 -6 143 -10 355 -10 l335 0 -15 36 c-77 183 -264 338 -459 379 -87 18 -164 19 -170 3z"/>
    <path d="M1078 2498 c-8 -7 -53 -121 -99 -253 -97 -277 -104 -326 -57 -387 56 -73 53 -73 524 -76 l422 -3 4 48 c2 26 2 69 0 95 l-4 47 -395 3 -395 3 -24 28 c-13 15 -24 40 -24 54 0 23 37 174 91 368 10 38 19 73 19 77 0 13 -45 9 -62 -4z"/>
    <path d="M942 2449 c-387 -200 -471 -719 -166 -1026 57 -57 90 -80 165 -116 121 -58 180 -72 309 -70 180 1 321 62 440 189 55 58 121 157 134 201 l7 21 -408 4 c-356 4 -415 7 -463 22 -147 48 -207 152 -169 289 6 21 51 132 101 245 117 266 119 272 115 272 -3 0 -31 -14 -65 -31z"/>
    <path d="M2475 2280 c-61 -11 -128 -36 -175 -65 -64 -40 -145 -138 -176 -211 -25 -61 -28 -81 -29 -179 0 -101 2 -115 29 -173 37 -79 114 -152 194 -183 111 -42 267 -27 379 38 42 24 153 136 153 153 0 6 -34 27 -76 48 l-76 38 -52 -51 c-51 -51 -103 -75 -160 -75 -57 0 -119 23 -156 59 -109 104 -63 326 84 404 31 16 59 21 117 22 66 0 81 -3 117 -27 23 -16 49 -43 59 -62 l18 -33 93 26 92 26 -26 52 c-33 67 -119 146 -187 171 -64 24 -156 33 -222 22z"/>
    <path d="M4443 2257 l-73 -22 0 -40 c0 -78 -6 -85 -66 -85 -59 0 -55 8 -68 -112 l-6 -48 57 0 56 0 -6 -62 c-4 -35 -11 -110 -17 -167 -21 -204 21 -260 197 -261 45 0 84 3 86 8 3 4 8 37 12 75 l7 67 -55 0 c-85 0 -92 13 -78 147 6 59 14 127 17 151 l6 42 73 0 72 0 7 61 c11 106 15 99 -65 99 l-70 0 7 85 c8 98 14 94 -93 62z"/>
    <path d="M5974 2258 l-70 -20 -12 -112 c-7 -61 -23 -219 -37 -351 -14 -132 -27 -257 -30 -277 l-5 -38 85 0 c47 0 85 4 85 9 0 15 58 577 70 672 13 112 13 139 -2 138 -7 0 -45 -10 -84 -21z"/>
    <path d="M3122 2099 c-150 -58 -250 -247 -221 -417 38 -216 293 -315 458 -176 l31 26 0 -36 0 -36 80 0 c91 0 84 -8 95 115 6 62 35 338 51 483 l5 52 -69 0 -69 0 -17 -39 -18 -38 -24 24 c-64 64 -197 82 -302 42z m237 -166 c37 -27 61 -80 61 -133 -1 -183 -227 -270 -333 -129 -44 60 -26 177 38 239 60 58 170 69 234 23z"/>
    <path d="M3841 2103 c-112 -40 -183 -182 -136 -273 23 -44 71 -75 169 -109 49 -17 99 -39 109 -50 19 -18 19 -21 4 -44 -19 -29 -63 -42 -107 -32 -35 8 -90 51 -90 70 0 10 -20 7 -82 -14 -45 -15 -83 -32 -85 -38 -2 -5 11 -32 29 -59 49 -73 126 -109 233 -109 166 1 273 77 283 202 9 104 -39 158 -175 199 -102 30 -133 47 -133 73 0 53 97 73 136 28 12 -14 24 -31 26 -37 4 -13 158 27 158 41 0 42 -68 125 -125 150 -50 23 -152 24 -214 2z"/>
    <path d="M5032 2101 c-47 -16 -86 -41 -104 -65 -3 -5 -11 9 -18 32 l-11 42 -69 0 c-39 0 -70 -4 -70 -9 0 -5 -12 -118 -26 -252 -14 -134 -29 -277 -33 -316 l-7 -73 83 0 c46 0 83 3 83 8 1 63 42 357 53 378 30 57 77 88 150 99 45 7 47 9 47 39 0 17 3 55 6 84 8 61 3 63 -84 33z"/>
    <path d="M5363 2106 c-104 -34 -185 -106 -232 -205 -22 -48 -26 -69 -26 -151 0 -81 4 -102 25 -143 122 -240 489 -210 617 51 25 51 28 68 28 157 0 84 -4 107 -22 141 -34 64 -67 97 -125 129 -45 24 -66 29 -138 32 -53 2 -101 -2 -127 -11z m175 -165 c41 -22 61 -49 73 -101 17 -77 -32 -179 -104 -217 -41 -21 -124 -20 -165 1 -49 25 -72 70 -72 142 0 49 5 68 29 105 51 81 157 112 239 70z"/>
  </g>
</svg>
