<?xml version="1.0" standalone="no"?>
<!DOCTYPE svg PUBLIC "-//W3C//DTD SVG 20010904//EN"
 "http://www.w3.org/TR/2001/REC-SVG-20010904/DTD/svg10.dtd">
<svg version="1.0" xmlns="http://www.w3.org/2000/svg"
 width="100.000000pt" height="70.000000pt" viewBox="0 0 100.000000 70.000000"
 preserveAspectRatio="xMidYMid meet">
<g transform="translate(0.000000,70.000000) scale(0.016835,-0.016667)"
fill="#8A8A8A" stroke="none">
<path d="M340 2240 l0 -350 151 0 c172 0 222 9 273 52 69 56 80 93 84 268 5
193 -5 242 -59 304 -57 64 -102 76 -296 76 l-153 0 0 -350z m320 215 c49 -25
60 -65 60 -218 0 -123 -2 -137 -23 -168 -31 -47 -61 -59 -144 -59 l-73 0 0
236 0 237 74 -6 c40 -3 88 -13 106 -22z"/>
<path d="M3350 2440 l0 -140 -52 0 -52 0 29 -30 29 -30 -29 -30 -29 -30 52 0
52 0 0 -149 0 -149 33 7 c45 11 75 28 87 51 6 11 10 137 10 329 l0 311 -65 0
-65 0 0 -140z"/>
<path d="M1005 2401 c-39 -10 -68 -26 -85 -46 -11 -14 -8 -21 25 -55 l38 -39
25 19 c17 14 40 20 78 20 65 0 94 -22 94 -74 l0 -34 -98 -4 c-74 -3 -106 -8
-131 -23 -49 -29 -73 -79 -68 -138 8 -91 70 -141 174 -141 49 0 69 5 93 22 36
27 40 27 40 2 0 -18 7 -20 56 -20 l55 0 -3 208 c-3 196 -4 209 -25 238 -13 17
-39 39 -59 49 -40 19 -163 28 -209 16z m175 -336 c0 -53 -28 -75 -94 -75 -45
0 -58 4 -70 22 -41 58 -10 88 90 88 l74 0 0 -35z"/>
<path d="M1527 2386 c-44 -22 -47 -22 -47 -5 0 17 -8 19 -65 19 l-65 0 0 -255
0 -255 65 0 65 0 0 173 c0 189 4 204 59 227 25 10 35 9 63 -4 l32 -17 50 50
50 50 -45 20 c-58 27 -105 26 -162 -3z"/>
<path d="M1954 2400 c-17 -6 -37 -17 -44 -25 -17 -21 -30 -19 -30 5 0 18 -7
20 -60 20 l-60 0 0 -255 0 -255 60 0 60 0 0 160 c0 188 9 221 63 239 41 14 78
3 101 -31 13 -18 16 -53 16 -195 l0 -173 65 0 65 0 0 174 c0 170 1 176 24 202
18 21 32 28 61 28 29 0 43 -7 61 -28 23 -26 24 -32 24 -202 l0 -174 66 0 66 0
-4 198 c-3 177 -5 200 -24 232 -26 45 -75 77 -129 85 -56 9 -95 0 -142 -32
-23 -16 -42 -22 -49 -17 -48 37 -67 45 -110 49 -27 2 -63 0 -80 -5z"/>
<path d="M2665 2406 c-5 -2 -22 -7 -37 -10 -14 -3 -40 -17 -57 -31 l-30 -26
42 -38 41 -39 25 19 c31 25 110 26 140 2 12 -10 24 -34 27 -54 l6 -37 -98 -4
c-68 -3 -109 -10 -132 -22 -84 -44 -97 -163 -25 -238 49 -52 166 -58 231 -13
21 15 22 15 22 -4 0 -19 6 -21 60 -21 l60 0 0 195 c0 173 -2 200 -19 233 -27
54 -85 83 -174 88 -39 2 -76 2 -82 0z m152 -343 c-8 -50 -38 -73 -95 -73 -69
0 -100 38 -72 91 9 16 22 19 92 19 l81 0 -6 -37z"/>
</g>
</svg>
