<?xml version="1.0" standalone="no"?>
<!DOCTYPE svg PUBLIC "-//W3C//DTD SVG 20010904//EN"
 "http://www.w3.org/TR/2001/REC-SVG-20010904/DTD/svg10.dtd">
<svg version="1.0" xmlns="http://www.w3.org/2000/svg"
 width="100.000000pt" height="82.000000pt" viewBox="0 0 100.000000 82.000000"
 preserveAspectRatio="xMidYMid meet">

<g transform="translate(0.000000,82.000000) scale(0.018692,-0.017559)"
fill="#8A8A8A" stroke="none">
<path d="M327 2778 c-62 -79 -132 -168 -155 -199 l-42 -56 75 -194 c41 -107
105 -272 143 -368 l69 -174 6 339 c4 186 7 434 7 549 0 116 4 203 9 195 4 -8
25 -138 47 -287 21 -150 41 -273 44 -273 6 0 194 152 445 360 77 64 158 129
180 145 l40 29 -46 -50 c-25 -27 -132 -140 -237 -251 -106 -111 -192 -204
-192 -207 0 -2 73 -96 163 -208 89 -111 168 -212 176 -223 7 -11 -79 72 -192
184 l-205 204 -65 -28 -65 -27 -15 -67 c-8 -36 -30 -138 -48 -226 -18 -88 -36
-161 -40 -163 -4 -2 -6 -9 -3 -16 4 -10 38 -7 152 15 81 14 223 39 317 55 154
26 172 31 204 59 31 27 266 279 370 395 l43 49 -30 48 c-17 26 -85 136 -151
243 -67 107 -125 200 -129 206 -4 7 -60 17 -127 23 -66 6 -219 20 -340 31
-121 11 -237 22 -257 25 l-38 5 -113 -142z"/>
<path d="M4147 2660 c-139 -35 -247 -172 -247 -315 0 -118 77 -237 188 -292
79 -39 183 -39 263 -2 61 29 128 89 153 138 l16 29 -68 27 -68 27 -40 -40
c-70 -70 -162 -76 -235 -15 -105 89 -64 257 73 294 60 16 119 -3 164 -53 l35
-39 69 27 69 27 -15 29 c-24 47 -92 108 -148 134 -60 27 -153 38 -209 24z"/>
<path d="M4820 2656 c-60 -16 -109 -47 -155 -97 -59 -65 -79 -121 -79 -214 0
-95 21 -150 83 -217 121 -132 321 -138 458 -14 59 53 96 143 96 231 0 150 -94
272 -239 310 -69 18 -103 18 -164 1z m177 -167 c74 -46 100 -157 54 -233 -65
-104 -220 -108 -288 -7 -46 68 -35 172 25 224 54 49 145 56 209 16z"/>
<path d="M1770 2350 l0 -310 70 0 c39 0 73 1 78 3 4 1 8 47 8 102 1 55 6 98
10 95 5 -3 49 -49 99 -102 l90 -97 105 0 104 -1 -40 43 c-22 23 -84 88 -137
145 -61 64 -95 108 -90 115 4 7 48 64 98 127 50 63 104 132 119 153 l28 37
-95 0 -96 0 -95 -121 c-53 -67 -96 -118 -96 -113 -1 5 -2 59 -3 119 l-2 110
-77 3 -78 3 0 -311z"/>
<path d="M2410 2350 l0 -310 80 0 80 0 -2 308 -3 307 -77 3 -78 3 0 -311z"/>
<path d="M2700 2351 l0 -311 163 0 c163 0 164 0 225 31 236 117 226 452 -17
562 -39 18 -70 22 -208 25 l-163 4 0 -311z m310 137 c115 -58 123 -203 17
-282 -20 -15 -47 -21 -97 -24 l-70 -4 0 166 0 166 53 0 c35 0 68 -8 97 -22z"/>
<path d="M3360 2345 l0 -315 228 2 227 3 3 77 3 77 -153 3 -153 3 -3 33 -3 32
141 0 141 0 -3 83 -3 82 -138 3 -138 3 3 32 3 32 153 3 152 3 0 79 0 80 -230
0 -230 0 0 -315z"/>
</g>
</svg>
