<?xml version="1.0" standalone="no"?>
<!DOCTYPE svg PUBLIC "-//W3C//DTD SVG 20010904//EN"
 "http://www.w3.org/TR/2001/REC-SVG-20010904/DTD/svg10.dtd">
<svg version="1.0" xmlns="http://www.w3.org/2000/svg"
 width="180.000000pt" height="38.000000pt" viewBox="0 0 200.000000 38.000000"
 preserveAspectRatio="xMidYMid meet">
<metadata>
Created by potrace 1.16, written by Peter Selinger 2001-2019
</metadata>
<g transform="translate(0.000000,38.000000) scale(0.022676,-0.013428)"
fill="#8A8A8A" stroke="none">
<path d="M5924 2105 c-2 -5 -5 -77 -6 -160 l-3 -150 -333 -3 -332 -2 2 -187 3
-187 115 -1 115 0 3 -317 2 -318 215 0 215 0 0 465 0 465 190 0 190 0 -36 -50
c-114 -158 -73 -351 96 -460 29 -18 86 -40 143 -54 113 -28 117 -30 117 -61 0
-33 -34 -41 -130 -28 -61 8 -91 19 -155 56 -79 44 -80 45 -89 24 -6 -12 -22
-49 -37 -82 -41 -93 -63 -160 -57 -176 8 -20 53 -41 173 -79 83 -27 120 -34
222 -38 143 -5 219 7 309 49 88 42 144 105 174 198 21 67 22 80 13 138 -26
150 -121 239 -307 289 -100 26 -127 44 -110 72 24 38 139 22 243 -34 35 -19
64 -34 65 -32 8 13 106 267 106 276 0 13 -80 49 -170 77 -104 33 -239 43 -334
25 -36 -7 -100 -29 -141 -50 l-75 -38 0 189 0 189 -137 1 c-76 1 -164 2 -197
3 -32 0 -60 -3 -62 -9z"/>
<path d="M2275 1831 c-27 -4 -77 -18 -110 -30 -33 -13 -69 -25 -80 -29 -58
-16 -160 -124 -224 -236 -80 -139 -83 -345 -6 -495 34 -69 140 -197 173 -210
15 -7 45 -21 67 -33 122 -64 258 -83 380 -53 169 42 301 146 380 300 l40 78 3
135 c2 79 -1 154 -8 181 -17 71 -84 175 -162 251 -69 68 -78 73 -213 120 -61
21 -171 31 -240 21z m163 -434 c59 -55 68 -128 25 -194 -30 -47 -58 -63 -111
-63 -75 0 -142 69 -142 145 0 50 35 105 82 129 43 22 113 14 146 -17z"/>
<path d="M4794 1792 l-202 -2 -15 -33 c-8 -17 -23 -59 -32 -92 -23 -80 -113
-345 -125 -370 -9 -18 -62 -165 -110 -305 -10 -30 -21 -68 -25 -84 -3 -15 -8
-27 -10 -24 -4 3 -155 885 -155 902 0 3 -90 6 -199 6 l-199 0 -57 -170 c-31
-93 -60 -172 -64 -175 -5 -2 -14 15 -21 38 -8 23 -16 46 -19 52 -3 5 -23 64
-46 130 l-40 120 -197 3 c-109 1 -198 -1 -198 -5 0 -8 -16 -106 -65 -413 -14
-91 -39 -246 -55 -345 -16 -99 -32 -195 -36 -212 l-6 -33 195 0 c178 0 196 2
201 18 3 9 13 55 21 102 9 47 21 109 26 139 l11 55 14 -33 c7 -18 30 -89 50
-157 l37 -125 126 3 125 3 50 155 c35 112 51 149 56 135 4 -11 15 -82 25 -157
l18 -138 408 0 408 0 15 53 c16 56 44 175 72 302 9 44 20 86 24 94 4 8 16 -23
29 -75 12 -49 35 -141 52 -204 17 -63 34 -127 36 -142 l5 -28 225 0 c210 0
225 1 220 18 -23 69 -91 256 -108 295 -11 26 -28 80 -39 120 -10 39 -42 133
-69 207 -45 119 -131 359 -131 365 0 8 -46 10 -226 7z"/>
<path d="M720 1285 l0 -505 210 0 c116 0 213 1 218 3 4 1 7 106 7 234 0 127 3
234 6 238 4 3 14 -12 23 -35 9 -22 33 -77 55 -123 21 -45 44 -100 51 -122 7
-22 28 -74 49 -115 l36 -75 248 -5 c136 -3 247 -4 247 -2 0 2 -36 79 -81 170
-44 92 -99 207 -123 255 l-42 89 48 98 c26 55 59 130 74 167 15 37 44 104 66
147 21 44 38 81 38 83 0 1 -110 3 -244 3 l-244 0 -41 -96 c-22 -52 -41 -102
-41 -111 0 -8 -7 -27 -15 -41 -13 -25 -60 -125 -90 -197 -13 -29 -13 -29 -20
27 -4 32 -5 138 -3 238 l5 180 -219 0 -218 0 0 -505z"/>
<path d="M7146 1445 c1 -190 4 -364 8 -387 10 -61 64 -155 110 -192 88 -71
257 -113 414 -103 173 11 294 61 353 147 69 99 69 101 69 512 l0 368 -210 0
-210 0 0 -316 c0 -198 -4 -322 -10 -335 -15 -27 -64 -25 -84 3 -14 19 -16 68
-16 335 l0 313 -212 0 -213 0 1 -345z"/>
</g>
</svg>
