<?xml version="1.0" standalone="no"?>
<!DOCTYPE svg PUBLIC "-//W3C//DTD SVG 20010904//EN"
 "http://www.w3.org/TR/2001/REC-SVG-20010904/DTD/svg10.dtd">
<svg version="1.0" xmlns="http://www.w3.org/2000/svg"
 width="120.000000pt" height="56.000000pt" viewBox="0 0 120.000000 56.000000"
 preserveAspectRatio="xMidYMid meet">
<g transform="translate(0.000000,56.000000) scale(0.016830,-0.016000)"
fill="#8A8A8A" stroke="none">
<path d="M956 1793 c-44 -59 -123 -167 -175 -240 -53 -74 -107 -149 -121 -167
-49 -66 -246 -340 -294 -410 -27 -39 -79 -112 -117 -163 -37 -50 -66 -93 -64
-95 2 -1 33 -1 69 0 l66 4 120 166 c66 92 156 217 200 277 75 102 103 141 147
205 30 43 306 423 340 468 18 24 33 48 33 53 0 5 -28 9 -63 9 l-62 0 -79 -107z"/>
<path d="M1310 1893 c0 -5 -26 -43 -58 -85 -31 -43 -81 -113 -111 -155 -64
-91 -243 -336 -251 -343 -3 -3 -14 -18 -23 -33 -10 -16 -24 -36 -32 -45 -7 -9
-38 -51 -67 -93 -29 -43 -106 -151 -171 -240 -65 -90 -118 -168 -118 -173 1
-5 13 -9 28 -9 16 0 76 1 135 2 l107 1 28 41 c15 22 44 63 63 89 19 27 60 84
90 126 30 42 93 129 140 193 47 64 104 142 125 174 59 86 288 401 295 407 10
8 100 137 100 144 0 9 -280 7 -280 -1z"/>
<path d="M1684 1808 c-38 -51 -88 -122 -113 -158 -44 -65 -130 -184 -151 -208
-6 -6 -63 -85 -126 -175 -63 -89 -161 -225 -217 -302 -168 -228 -179 -245
-170 -245 4 0 1371 0 3038 0 l3030 0 3 590 2 590 -2614 0 -2614 0 -68 -92z
m2973 -214 c120 -37 193 -145 193 -286 0 -123 -59 -227 -152 -267 -141 -60
-340 -46 -442 32 -94 73 -128 266 -66 386 23 46 88 106 137 126 88 37 227 41
330 9z m645 5 c68 -18 128 -88 128 -149 0 -18 -6 -20 -83 -20 -79 0 -84 1 -97
25 -18 33 -74 49 -131 36 -46 -10 -61 -25 -57 -56 3 -21 55 -39 185 -66 86
-18 144 -48 171 -89 32 -47 28 -139 -7 -189 -74 -103 -384 -120 -490 -27 -29
26 -51 75 -51 116 l0 31 87 -3 87 -3 8 -33 c10 -39 38 -52 106 -52 66 0 97 18
97 55 0 34 -24 49 -97 64 -24 5 -67 14 -97 20 -145 30 -212 124 -167 232 25
60 90 104 175 119 52 10 178 4 233 -11z m-3017 -24 c68 -42 90 -83 89 -167 0
-60 -4 -72 -30 -105 -52 -64 -91 -78 -236 -82 l-128 -3 0 -104 0 -104 -90 0
c-65 0 -90 3 -91 13 0 11 0 578 1 585 0 2 98 2 218 0 l219 -3 48 -30z m625
-35 l0 -60 -162 -2 -163 -3 -3 -47 -3 -47 153 -3 153 -3 0 -60 0 -60 -152 -3
-153 -3 0 -54 0 -55 165 0 165 0 0 -60 0 -60 -255 0 -255 0 0 290 0 290 255 0
255 0 0 -60z m645 0 l0 -55 -110 -5 -110 -5 -3 -228 -2 -228 -88 3 -87 3 -3
228 -2 227 -110 0 -110 0 0 60 0 60 313 -2 312 -3 0 -55z m510 35 c107 -54
113 -193 10 -242 -36 -17 -46 -33 -21 -33 7 0 25 -9 39 -21 28 -21 43 -64 58
-159 4 -30 11 -65 15 -77 6 -23 5 -23 -88 -23 l-95 0 -12 78 c-20 122 -19 121
-62 132 -22 6 -65 10 -97 8 l-57 -3 -5 -105 -5 -105 -87 -3 -88 -3 0 291 0
291 228 -3 c203 -3 231 -5 267 -23z m1905 -35 l0 -60 -160 0 -160 0 0 -50 0
-50 150 0 c149 0 150 0 156 -23 3 -13 4 -41 2 -63 l-3 -39 -152 -3 -153 -3 0
-54 0 -55 176 2 175 3 28 50 c48 87 102 187 148 275 77 143 59 130 176 130
l103 0 41 -82 c23 -46 65 -126 93 -178 73 -135 160 -306 160 -314 0 -3 -43 -6
-95 -6 l-95 0 -23 48 c-12 26 -26 50 -32 54 -5 4 -82 8 -170 8 l-161 0 -27
-55 -27 -55 -325 0 -325 0 0 290 0 290 250 0 250 0 0 -60z"/>
<path d="M4445 1483 c-65 -18 -105 -82 -105 -170 0 -126 52 -183 167 -183 108
0 163 60 163 178 0 116 -47 171 -148 177 -31 2 -66 1 -77 -2z"/>
<path d="M1987 1483 c-4 -3 -7 -37 -7 -75 l0 -68 70 0 c83 0 127 18 136 57 9
34 -14 75 -46 84 -33 9 -145 11 -153 2z"/>
<path d="M3750 1420 l0 -60 93 0 c104 0 127 12 127 63 0 43 -32 57 -132 57
l-88 0 0 -60z"/>
<path d="M6287 1363 c-31 -61 -53 -114 -50 -117 9 -9 201 -7 206 2 3 4 -19 56
-48 117 l-53 109 -55 -111z"/>
</g>
</svg>
