<?xml version="1.0" standalone="no"?>
<!DOCTYPE svg PUBLIC "-//W3C//DTD SVG 20010904//EN"
 "http://www.w3.org/TR/2001/REC-SVG-20010904/DTD/svg10.dtd">
<svg version="1.0" xmlns="http://www.w3.org/2000/svg"
 width="84.000000pt" height="42.000000pt" viewBox="0 0 130.000000 65.000000"
 preserveAspectRatio="xMidYMid meet">

<g transform="translate(0.000000,65.000000) scale(0.043333,-0.043333)"
fill="#8A8A8A" stroke="none">
<path d="M0 930 l0 -570 150 0 150 0 0 175 0 175 138 0 c75 0 155 5 177 11 51
14 92 53 105 98 5 20 10 155 10 301 0 296 -3 313 -69 357 -34 23 -38 23 -347
23 l-314 0 0 -570z m415 270 c9 -14 9 -165 0 -179 -3 -6 -33 -11 -66 -11 l-59
0 0 100 0 100 59 0 c33 0 63 -5 66 -10z"/>
<path d="M770 925 l0 -575 160 0 160 0 0 575 0 575 -160 0 -160 0 0 -575z"/>
<path d="M1132 976 c3 -512 3 -525 24 -552 51 -69 51 -69 324 -72 231 -3 253
-2 294 17 28 12 53 33 66 53 19 32 20 49 20 556 l0 522 -150 0 -150 0 -2 -422
-3 -423 -60 0 -60 0 -3 423 -2 422 -150 0 -151 0 3 -524z"/>
<path d="M1979 1477 c-66 -44 -70 -62 -67 -344 3 -236 4 -253 24 -279 48 -64
61 -69 237 -74 l162 -5 0 -60 0 -60 -48 -3 c-57 -4 -77 9 -77 49 l0 29 -150 0
-150 0 0 -132 c0 -149 10 -180 72 -218 31 -19 51 -20 293 -20 242 0 262 1 293
20 18 11 41 34 52 52 19 31 20 47 18 293 -3 242 -4 262 -23 287 -41 55 -67 62
-240 68 l-160 5 -3 51 c-4 63 10 76 75 72 46 -3 48 -4 51 -35 l3 -33 156 0
155 0 -4 128 c-4 143 -16 179 -71 212 -30 18 -52 20 -298 20 -260 0 -267 -1
-300 -23z"/>
<path d="M2690 925 l0 -575 155 0 155 0 0 575 0 575 -155 0 -155 0 0 -575z"/>
<path d="M0 155 l0 -155 1500 0 1500 0 0 155 0 155 -1500 0 -1500 0 0 -155z
m2861 57 c25 -23 32 -36 33 -70 1 -54 -33 -91 -92 -99 -36 -5 -45 -2 -72 25
-42 42 -42 101 -1 143 40 39 89 40 132 1z"/>
<path d="M2735 195 c-62 -61 3 -162 85 -134 36 13 64 60 54 92 -20 67 -93 89
-139 42z"/>
</g>
</svg>
